<svg width="1440" height="543" viewBox="0 0 1440 543" fill="none" xmlns="http://www.w3.org/2000/svg">
<path d="M789.821 509.472C748.12 530.554 698.88 530.553 657.178 509.472L-21.365 166.438C-159.484 96.6133 -109.809 -111.75 44.9569 -111.75L1402.04 -111.75C1556.81 -111.75 1606.48 96.6135 1468.36 166.439L789.821 509.472Z" fill="#303030" fill-opacity="0.48"/>
<path d="M789.821 471.472C748.12 492.554 698.88 492.553 657.178 471.472L-21.365 128.438C-159.484 58.6133 -109.809 -149.75 44.9569 -149.75L1402.04 -149.75C1556.81 -149.75 1606.48 58.6135 1468.36 128.439L789.821 471.472Z" fill="#303030"/>
<path d="M789.821 432.472C748.12 453.554 698.88 453.553 657.178 432.472L-21.365 89.4384C-159.484 19.6133 -109.809 -188.75 44.9569 -188.75L1402.04 -188.75C1556.81 -188.75 1606.48 19.6135 1468.36 89.4387L789.821 432.472Z" fill="#424242"/>
</svg>
