<svg width="1440" height="435" viewBox="0 0 1440 435" fill="none" xmlns="http://www.w3.org/2000/svg">
<path d="M785.821 401.472C744.12 422.554 694.88 422.553 653.178 401.472L-25.365 58.4384C-163.484 -11.3867 -113.809 -219.75 40.957 -219.75L1398.04 -219.75C1552.81 -219.75 1602.48 -11.3865 1464.36 58.4387L785.821 401.472Z" fill="#303030" fill-opacity="0.48"/>
<path d="M785.821 363.472C744.12 384.554 694.88 384.553 653.178 363.472L-25.365 20.4384C-163.484 -49.3867 -113.809 -257.75 40.957 -257.75L1398.04 -257.75C1552.81 -257.75 1602.48 -49.3865 1464.36 20.4387L785.821 363.472Z" fill="#303030"/>
<path d="M785.821 324.472C744.12 345.554 694.88 345.553 653.178 324.472L-25.365 -18.5616C-163.484 -88.3867 -113.809 -296.75 40.957 -296.75L1398.04 -296.75C1552.81 -296.75 1602.48 -88.3865 1464.36 -18.5613L785.821 324.472Z" fill="#424242"/>
</svg>
